<?xml version="1.0" encoding="UTF-8" standalone="no"?>
<svg
   viewBox="-397.215 -92.545 1499.614 500.038"
   width="13.9585"
   height="13.1252"
   version="1.1"
   id="svg1"
   xmlns="http://www.w3.org/2000/svg"
   xmlns:svg="http://www.w3.org/2000/svg"
   xmlns:bx="https://boxy-svg.com">
  <defs
     id="defs1">
    <bx:guide
       x="-391.916"
       y="181.357"
       angle="90" />
    <bx:guide
       x="336.633"
       y="-91.277"
       angle="90" />
  </defs>
  <g
     transform="matrix(0.45738069,0.09411176,0.08746216,-0.5067156,-809.78343,1030.8251)"
     fill="#000000"
     stroke="none"
     id="g1">
    <path
       d="m 3245,3226 c -188,-50 -367,-138 -524,-257 l -90,-68 -63,25 c -233,91 -517,124 -780,89 -130,-17 -223,-41 -360,-91 l -98,-36 -52,40 c -204,155 -496,273 -683,275 -83,0 -126,-18 -152,-66 -30,-54 -25,-329 10,-527 51,-291 87,-409 154,-497 22,-31 23,-36 11,-75 -8,-28 -13,-103 -12,-218 0,-161 3,-182 28,-265 84,-277 277,-492 570,-634 470,-229 1122,-229 1592,0 292,142 486,357 570,634 25,83 28,104 28,265 1,133 -3,189 -16,233 l -16,57 44,65 c 52,78 84,175 118,356 57,302 72,571 36,643 -40,78 -149,96 -315,52 z M 1563,2019 c 77,-60 47,-219 -41,-219 -90,0 -114,187 -29,228 32,15 41,14 70,-9 z m 941,10 c 87,-40 66,-229 -26,-229 -88,0 -118,159 -41,219 30,24 34,25 67,10 z m -429,-379 c 12,-4 27,-15 35,-24 31,-38 -43,-116 -110,-116 -40,0 -91,32 -108,66 -14,31 -14,35 2,53 32,36 117,45 181,21 z m -450,-49 c 17,-4 -47,-10 -150,-13 -176,-6 -287,-25 -398,-67 -35,-14 -47,-14 -27,-1 27,18 171,62 243,75 76,14 281,17 332,6 z m 1198,-25 c 54,-15 115,-36 135,-47 20,-11 30,-18 21,-15 -9,2 -47,14 -85,26 -111,34 -228,50 -378,51 -94,1 -131,4 -111,10 17,4 95,6 175,4 117,-2 164,-8 243,-29 z m -1164,-70 c -3,-3 -49,-15 -104,-27 -176,-38 -304,-92 -455,-193 -89,-60 -113,-71 -65,-30 102,86 277,178 410,215 86,24 226,46 214,35 z m 898,-27 c 96,-24 193,-63 278,-112 69,-39 185,-123 185,-133 0,-7 -9,-1 -95,57 -137,92 -300,159 -470,194 -44,9 -82,18 -84,21 -9,9 114,-9 186,-27 z m -950,-92 c -98,-50 -174,-104 -266,-191 -35,-34 -59,-52 -53,-40 6,11 44,52 85,91 75,71 163,130 247,164 82,33 75,20 -13,-24 z m 840,8 c 29,-13 77,-40 106,-59 61,-41 170,-144 188,-178 6,-13 -22,9 -62,48 -79,76 -185,150 -274,190 -30,14 -55,28 -55,30 0,8 38,-5 97,-31 z"
       id="path1" />
  </g>
</svg>
